<svg width="323" height="125" viewBox="0 0 323 125" fill="none" xmlns="http://www.w3.org/2000/svg">
<g clip-path="url(#clip0_109_108)">
<path d="M98.2438 1.67831C93.6925 12.6131 90.3036 22.1761 85.6461 35.2096L70.0843 79.878H69.6601L48.9105 19.9671L27.736 79.878H27.3131L0 1.67831H11.5395L32.0775 61.3802L53.2513 1.67831H53.6754L74.3195 61.3802L83.6365 34.5777C89.1417 19.234 91.7461 11.6289 94.9876 1.61859L98.2438 1.67831Z" fill="black"/>
<path d="M158.556 1.6783V51.7099C158.556 69.5752 149.981 79.4576 131.349 79.4576C112.717 79.4576 103.4 69.5752 103.4 51.9183V1.6783H114.198V51.7099C114.198 68.106 121.61 76.304 135.267 76.304C148.394 76.304 156.44 68.4186 156.44 52.2346V1.6783H158.556Z" fill="black"/>
<path d="M181.192 1.67829V54.2315C181.192 79.878 171.029 86.6032 155.361 93.9609L154.619 92.6994C168.7 84.0815 170.393 74.4106 170.393 55.0725V1.67829H181.192Z" fill="black"/>
<path d="M252.202 1.67832V78.1937H241.402V39.3084H203.715V78.1937H192.918V1.67832H203.715V37.4156H241.402V1.67832H252.202Z" fill="black"/>
<path d="M300.344 51.1852L286.053 16.0798L274.09 45.4046L271.761 51.1852H300.344ZM323 78.1936H311.249L301.085 53.0755H271.02L260.655 78.009H258.141L272.08 44.6654L290.499 2.60822e-06H290.922L323 78.1936Z" fill="black"/>
<path d="M73.172 123.581H75.6659C76.5215 123.581 77.3225 123.473 78.0689 123.262C78.8141 123.047 79.4629 122.722 80.0128 122.287C80.5634 121.849 80.9968 121.294 81.3153 120.62C81.6327 119.947 81.7923 119.148 81.7923 118.227C81.7923 117.303 81.6327 116.506 81.3153 115.833C80.9968 115.159 80.5634 114.601 80.0128 114.166C79.4629 113.728 78.8141 113.403 78.0689 113.191C77.3225 112.98 76.5215 112.873 75.6659 112.873H73.172V123.581ZM71.9609 111.779H75.9783C77.1028 111.779 78.0566 111.916 78.8386 112.19C79.6212 112.464 80.2725 112.813 80.7924 113.236C81.3116 113.662 81.7217 114.13 82.0212 114.647C82.3207 115.165 82.5405 115.657 82.6817 116.131C82.8222 116.605 82.9106 117.034 82.9474 117.416C82.9843 117.798 83.0021 118.069 83.0021 118.227C83.0021 118.385 82.9843 118.653 82.9474 119.038C82.9106 119.419 82.8222 119.845 82.6817 120.319C82.5405 120.793 82.3207 121.288 82.0212 121.804C81.7217 122.32 81.3116 122.791 80.7924 123.214C80.2725 123.64 79.6212 123.989 78.8386 124.263C78.0566 124.534 77.1028 124.672 75.9783 124.672H71.9609V111.779Z" fill="black"/>
<path d="M91.7695 111.779H99.7109V112.873H92.9793V117.461H99.2893V118.554H92.9793V123.581H100.004V124.672H91.7695V111.779Z" fill="black"/>
<path d="M106.864 111.779H108.166L112.348 123.089L116.566 111.779H117.85L112.916 124.672H111.706L106.864 111.779Z" fill="black"/>
<path d="M125.626 111.779H133.567V112.873H126.836V117.461H133.146V118.554H126.836V123.581H133.861V124.672H125.626V111.779Z" fill="black"/>
<path d="M142.555 111.779H143.764V123.581H149.817V124.672H142.555V111.779Z" fill="black"/>
<path d="M158.145 118.227C158.145 119.026 158.273 119.774 158.529 120.466C158.787 121.157 159.153 121.759 159.63 122.269C160.107 122.779 160.684 123.179 161.363 123.47C162.042 123.762 162.803 123.906 163.646 123.906C164.49 123.906 165.251 123.762 165.93 123.47C166.608 123.179 167.187 122.779 167.664 122.269C168.14 121.759 168.507 121.157 168.763 120.466C169.021 119.774 169.149 119.026 169.149 118.227C169.149 117.425 169.021 116.679 168.763 115.985C168.507 115.293 168.14 114.694 167.664 114.184C167.187 113.675 166.608 113.272 165.93 112.983C165.251 112.691 164.49 112.545 163.646 112.545C162.803 112.545 162.042 112.691 161.363 112.983C160.684 113.272 160.107 113.675 159.63 114.184C159.153 114.694 158.787 115.293 158.529 115.985C158.273 116.679 158.145 117.425 158.145 118.227ZM156.934 118.227C156.934 117.243 157.099 116.339 157.43 115.514C157.76 114.688 158.218 113.973 158.804 113.374C159.391 112.772 160.098 112.303 160.923 111.963C161.749 111.623 162.656 111.453 163.646 111.453C164.637 111.453 165.545 111.623 166.371 111.963C167.196 112.303 167.902 112.772 168.488 113.374C169.075 113.973 169.534 114.688 169.864 115.514C170.194 116.339 170.36 117.243 170.36 118.227C170.36 119.21 170.194 120.117 169.864 120.948C169.534 121.78 169.075 122.495 168.488 123.098C167.902 123.697 167.196 124.165 166.371 124.499C165.545 124.833 164.637 125 163.646 125C162.656 125 161.749 124.833 160.923 124.499C160.098 124.165 159.391 123.697 158.804 123.098C158.218 122.495 157.76 121.78 157.43 120.948C157.099 120.117 156.934 119.21 156.934 118.227Z" fill="black"/>
<path d="M180.338 117.461H183.089C183.431 117.461 183.768 117.422 184.098 117.341C184.428 117.264 184.722 117.136 184.979 116.96C185.235 116.784 185.443 116.551 185.602 116.259C185.761 115.967 185.841 115.609 185.841 115.186C185.841 114.771 185.758 114.42 185.593 114.128C185.427 113.838 185.213 113.597 184.95 113.409C184.688 113.222 184.385 113.085 184.043 113.001C183.701 112.915 183.358 112.873 183.016 112.873H180.338V117.461ZM179.128 111.779H182.869C183.321 111.779 183.795 111.832 184.291 111.933C184.785 112.038 185.238 112.217 185.648 112.473C186.057 112.727 186.394 113.075 186.656 113.52C186.92 113.961 187.051 114.518 187.051 115.186C187.051 115.767 186.944 116.271 186.73 116.698C186.516 117.121 186.228 117.47 185.868 117.744C185.507 118.015 185.091 118.22 184.62 118.352C184.149 118.486 183.658 118.554 183.145 118.554H180.338V124.672H179.128V111.779Z" fill="black"/>
<path d="M195.578 111.779H197.394L202.126 122.597L206.858 111.779H208.582V124.672H207.371V113.311H207.334L202.382 124.672H201.851L196.825 113.311H196.788V124.672H195.578V111.779Z" fill="black"/>
<path d="M218.064 111.779H226.006V112.873H219.274V117.461H225.584V118.554H219.274V123.581H226.299V124.672H218.064V111.779Z" fill="black"/>
<path d="M234.993 111.779H236.552L244.457 123.068H244.494V111.779H245.704V124.672H244.146L236.24 113.383H236.203V124.672H234.993V111.779Z" fill="black"/>
<path d="M258.195 112.873H253.756V111.779H263.844V112.873H259.405V124.672H258.195V112.873Z" fill="black"/>
</g>
<defs>
<clipPath id="clip0_109_108">
<rect width="323" height="125" fill="white"/>
</clipPath>
</defs>
</svg>
