<svg width="52" height="24" viewBox="0 0 52 24" fill="none" xmlns="http://www.w3.org/2000/svg">
<mask id="mask0_207_21" style="mask-type:luminance" maskUnits="userSpaceOnUse" x="0" y="4" width="52" height="20">
<path d="M52 4H0V24H52V4Z" fill="white"/>
</mask>
<g mask="url(#mask0_207_21)">
<path d="M5.95151 18.6669C4.45671 18.6669 3.29312 18.2901 2.46062 17.5367C1.62812 16.7772 1.21191 15.7169 1.21191 14.3557C1.21191 12.8853 1.67371 11.7277 2.59731 10.8831C3.52091 10.0385 4.76361 9.61621 6.32521 9.61621H7.55571V8.44044H9.15071V17.2086H11.2744C11.3352 17.2086 11.3656 17.2329 11.3656 17.2815V18.5757C11.3656 18.6365 11.3352 18.6669 11.2744 18.6669H5.95151ZM7.55571 17.2086V11.0654H6.37992C5.26182 11.0654 4.39591 11.354 3.78221 11.9313C3.17461 12.5025 2.87081 13.3045 2.87081 14.3375C2.87081 15.2672 3.13511 15.9781 3.66371 16.4703C4.19241 16.9625 4.94281 17.2086 5.91501 17.2086H7.55571ZM4.98541 6.71779C4.69371 6.71779 4.44461 6.62968 4.23801 6.45345C4.03741 6.27724 3.93721 5.99165 3.93721 5.59669C3.93721 5.20172 4.03741 4.91613 4.23801 4.73992C4.44461 4.5637 4.69371 4.47559 4.98541 4.47559C5.30131 4.47559 5.55351 4.57281 5.74191 4.76726C5.93021 4.95563 6.02441 5.2321 6.02441 5.59669C6.02441 5.9552 5.93021 6.23167 5.74191 6.42612C5.55961 6.62056 5.30741 6.71779 4.98541 6.71779ZM8.21191 6.71779C7.88991 6.71779 7.63471 6.62056 7.44631 6.42612C7.25791 6.23167 7.16371 5.9552 7.16371 5.59669C7.16371 5.23818 7.25491 4.9617 7.43721 4.76726C7.62551 4.57281 7.88381 4.47559 8.21191 4.47559C8.54611 4.47559 8.80441 4.57889 8.98661 4.78549C9.16891 4.98601 9.26011 5.25641 9.26011 5.59669C9.26011 5.93696 9.16891 6.2104 8.98661 6.417C8.80441 6.61752 8.54611 6.71779 8.21191 6.71779ZM11.1012 18.6669C11.0405 18.6669 11.0101 18.6365 11.0101 18.5757V17.2815C11.0101 17.2329 11.0405 17.2086 11.1012 17.2086H14.1273V9.61621H15.7861V17.2086H18.5843C18.645 17.2086 18.6754 17.2329 18.6754 17.2815V18.5757C18.6754 18.6365 18.645 18.6669 18.5843 18.6669H11.1012ZM13.3981 22.4039C13.1064 22.4039 12.8573 22.3159 12.6507 22.1396C12.4502 21.9633 12.3499 21.6777 12.3499 21.2828C12.3499 20.8879 12.4502 20.6023 12.6507 20.426C12.8573 20.2499 13.1064 20.1617 13.3981 20.1617C13.7141 20.1617 13.9662 20.2559 14.1546 20.4443C14.343 20.6387 14.4371 20.9183 14.4371 21.2828C14.4371 21.6413 14.343 21.9179 14.1546 22.1123C13.9723 22.3067 13.7202 22.4039 13.3981 22.4039ZM16.6247 22.4039C16.3026 22.4039 16.0474 22.3067 15.859 22.1123C15.6707 21.9179 15.5765 21.6413 15.5765 21.2828C15.5765 20.9243 15.6677 20.6479 15.8499 20.4533C16.0383 20.2589 16.2966 20.1617 16.6247 20.1617C16.9589 20.1617 17.2171 20.262 17.3994 20.4625C17.5817 20.6691 17.6729 20.9425 17.6729 21.2828C17.6729 21.6231 17.5817 21.8935 17.3994 22.094C17.2171 22.3007 16.9589 22.4039 16.6247 22.4039ZM18.4111 18.6669C18.3503 18.6669 18.3199 18.6365 18.3199 18.5757V17.2815C18.3199 17.2329 18.3503 17.2086 18.4111 17.2086H20.8721V9.61621H22.5309V18.6669H18.4111ZM21.6194 22.4039C21.2974 22.4039 21.0422 22.3067 20.8538 22.1123C20.6654 21.9179 20.5713 21.6413 20.5713 21.2828C20.5713 20.9243 20.6625 20.6479 20.8447 20.4533C21.0331 20.2589 21.2914 20.1617 21.6194 20.1617C21.9537 20.1617 22.2119 20.262 22.3942 20.4625C22.5765 20.6691 22.6677 20.9425 22.6677 21.2828C22.6677 21.6231 22.5765 21.8935 22.3942 22.094C22.2119 22.3007 21.9537 22.4039 21.6194 22.4039ZM28.6013 18.6669V19.1136C28.6013 20.3713 28.3157 21.3588 27.7445 22.0757C27.1733 22.7928 26.3499 23.1513 25.2745 23.1513C24.6789 23.1513 24.0439 22.9751 23.3694 22.6227L23.8525 21.374C24.1563 21.5076 24.4055 21.5927 24.5999 21.6292C24.7943 21.6717 25.007 21.6929 25.2379 21.6929C25.797 21.6929 26.2345 21.4651 26.5505 21.0093C26.8665 20.5536 27.0245 19.9521 27.0245 19.2047V9.61621H28.6013V17.2086H30.9073C30.9741 17.2086 31.0075 17.2329 31.0075 17.2815V18.5757C31.0075 18.6365 30.9741 18.6669 30.9073 18.6669H28.6013ZM39.8213 18.6669C39.2987 18.6669 38.7366 18.5909 38.1351 18.4391C37.5335 18.2811 36.9441 18.0472 36.3669 17.7372C35.2731 18.3571 34.1155 18.6669 32.8942 18.6669H30.7341C30.6733 18.6669 30.6429 18.6365 30.6429 18.5757V17.2815C30.6429 17.2329 30.6733 17.2086 30.7341 17.2086H32.8759C33.7691 17.2086 34.5105 17.0841 35.0999 16.8349C34.6199 16.4886 34.1277 15.9903 33.6234 15.3401C33.1251 14.6839 32.6998 13.979 32.3473 13.2255C32.001 12.466 31.7731 11.7459 31.6637 11.0654C32.3443 10.4274 33.1099 9.92612 33.9606 9.56153C34.8174 9.19694 35.6894 9.01465 36.5765 9.01465C37.3603 9.01465 38.1503 9.13923 38.9463 9.38836C39.7423 9.63748 40.4381 9.96865 41.0335 10.3818C41.0335 11.67 40.7358 12.8853 40.1403 14.0276C39.5449 15.17 38.7245 16.0997 37.6794 16.8167C38.3721 17.078 39.0617 17.2086 39.7483 17.2086H42.0087C42.0695 17.2086 42.0999 17.2329 42.0999 17.2815V18.5757C42.0999 18.6365 42.0695 18.6669 42.0087 18.6669H39.8213ZM36.3851 15.9964C37.3451 15.3462 38.0591 14.6322 38.527 13.8544C38.9949 13.0767 39.2593 12.1804 39.3199 11.1656C38.451 10.7038 37.5547 10.4729 36.6311 10.4729C35.5739 10.4729 34.5166 10.8345 33.4593 11.5576C33.6477 12.4083 34.0001 13.2225 34.5166 14.0003C35.0331 14.7781 35.6559 15.4434 36.3851 15.9964ZM41.8357 18.6669C41.7749 18.6669 41.7445 18.6365 41.7445 18.5757V17.2815C41.7445 17.2329 41.7749 17.2086 41.8357 17.2086H44.2966V4.48471H45.9554V18.6669H41.8357ZM49.7015 4.48471H51.3603V18.6669H49.7015V4.48471Z" fill="white"/>
</g>
</svg>
