<svg width="90" height="36" viewBox="0 0 90 36" fill="none" xmlns="http://www.w3.org/2000/svg">
<path d="M27.3248 0.470212C26.0589 3.5336 25.1164 6.2127 23.821 9.86404L19.4927 22.3779H19.3748L13.6036 5.59384L7.71429 22.3779H7.59667L0 0.470212H3.20952L8.92179 17.1957L14.8109 0.470212H14.9289L20.6707 17.1957L23.262 9.687C24.7932 5.38846 25.5176 3.25789 26.4191 0.453481L27.3248 0.470212Z" fill="white"/>
<path d="M44.0999 0.469843V14.4862C44.0999 19.4912 41.7148 22.2598 36.5326 22.2598C31.3506 22.2598 28.7593 19.4912 28.7593 14.5446V0.469843H31.7626V14.4862C31.7626 19.0796 33.8238 21.3763 37.6223 21.3763C41.2733 21.3763 43.5113 19.1672 43.5113 14.6332V0.469843H44.0999Z" fill="white"/>
<path d="M50.3952 0.470201V15.193C50.3952 22.3779 47.5686 24.262 43.2108 26.3232L43.0044 25.9699C46.9207 23.5555 47.3917 20.8462 47.3917 15.4286V0.470201H50.3952Z" fill="white"/>
<path d="M70.1457 0.4704V21.9062H67.1419V11.0125H56.6599V21.9062H53.6567V0.4704H56.6599V10.4822H67.1419V0.4704H70.1457Z" fill="white"/>
<path d="M83.5355 14.3398L79.5608 4.50501L76.2333 12.7204L75.5856 14.3398H83.5355ZM89.8369 21.9062H86.5685L83.7416 14.8694H75.3796L72.4966 21.8545H71.7974L75.6742 12.5133L80.7972 0.000236958H80.915L89.8369 21.9062Z" fill="white"/>
<path d="M20.3515 34.6212H21.0451C21.2831 34.6212 21.5059 34.5911 21.7135 34.5319C21.9207 34.4716 22.1012 34.3806 22.2541 34.2587C22.4073 34.136 22.5278 33.9806 22.6164 33.7918C22.7047 33.6032 22.7491 33.3794 22.7491 33.1212C22.7491 32.8624 22.7047 32.6393 22.6164 32.4506C22.5278 32.2618 22.4073 32.1056 22.2541 31.9837C22.1012 31.861 21.9207 31.77 21.7135 31.7106C21.5059 31.6513 21.2831 31.6213 21.0451 31.6213H20.3515V34.6212ZM20.0146 31.3149H21.132C21.4448 31.3149 21.7101 31.3533 21.9276 31.4301C22.1452 31.5069 22.3264 31.6046 22.471 31.7232C22.6154 31.8425 22.7294 31.9737 22.8127 32.1183C22.896 32.2635 22.9572 32.4013 22.9964 32.5341C23.0355 32.6669 23.0601 32.7871 23.0704 32.894C23.0806 33.001 23.0855 33.077 23.0855 33.1212C23.0855 33.1654 23.0806 33.2407 23.0704 33.3485C23.0601 33.4553 23.0355 33.5747 22.9964 33.7075C22.9572 33.8403 22.896 33.9789 22.8127 34.1234C22.7294 34.268 22.6154 34.3999 22.471 34.5184C22.3264 34.6379 22.1452 34.7356 21.9276 34.8124C21.7101 34.8883 21.4448 34.9268 21.132 34.9268H20.0146V31.3149Z" fill="white"/>
<path d="M25.5239 31.3147H27.7327V31.6211H25.8604V32.9065H27.6154V33.2129H25.8604V34.621H27.8143V34.9268H25.5239V31.3147Z" fill="white"/>
<path d="M29.7222 31.3147H30.0843L31.2474 34.4832L32.4206 31.3147H32.7777L31.4055 34.9268H31.0688L29.7222 31.3147Z" fill="white"/>
<path d="M34.9409 31.3147H37.1497V31.6211H35.2774V32.9065H37.0324V33.2129H35.2774V34.621H37.2313V34.9268H34.9409V31.3147Z" fill="white"/>
<path d="M39.6494 31.3147H39.9859V34.621H41.6694V34.9268H39.6494V31.3147Z" fill="white"/>
<path d="M43.9853 33.122C43.9853 33.3458 44.0209 33.5554 44.0923 33.7492C44.1638 33.943 44.2658 34.1116 44.3984 34.2545C44.5311 34.3973 44.6915 34.5093 44.8803 34.591C45.0692 34.6728 45.2809 34.7129 45.5154 34.7129C45.7502 34.7129 45.9619 34.6728 46.1507 34.591C46.3393 34.5093 46.5001 34.3973 46.6328 34.2545C46.7653 34.1116 46.8673 33.943 46.9387 33.7492C47.0102 33.5554 47.0459 33.3458 47.0459 33.122C47.0459 32.8973 47.0102 32.6885 46.9387 32.4939C46.8673 32.3001 46.7653 32.1323 46.6328 31.9894C46.5001 31.8467 46.3393 31.734 46.1507 31.6529C45.9619 31.5712 45.7502 31.5302 45.5154 31.5302C45.2809 31.5302 45.0692 31.5712 44.8803 31.6529C44.6915 31.734 44.5311 31.8467 44.3984 31.9894C44.2658 32.1323 44.1638 32.3001 44.0923 32.4939C44.0209 32.6885 43.9853 32.8973 43.9853 33.122ZM43.6484 33.122C43.6484 32.8464 43.6944 32.5933 43.7864 32.3619C43.8782 32.1306 44.0056 31.9302 44.1688 31.7624C44.332 31.5937 44.5285 31.4626 44.7579 31.3673C44.9877 31.2721 45.2401 31.2244 45.5154 31.2244C45.7911 31.2244 46.0435 31.2721 46.2732 31.3673C46.5027 31.4626 46.699 31.5937 46.8622 31.7624C47.0254 31.9302 47.153 32.1306 47.2448 32.3619C47.3367 32.5933 47.3828 32.8464 47.3828 33.122C47.3828 33.3975 47.3367 33.6516 47.2448 33.8844C47.153 34.1175 47.0254 34.3179 46.8622 34.4865C46.699 34.6545 46.5027 34.7856 46.2732 34.8792C46.0435 34.9728 45.7911 35.0195 45.5154 35.0195C45.2401 35.0195 44.9877 34.9728 44.7579 34.8792C44.5285 34.7856 44.332 34.6545 44.1688 34.4865C44.0056 34.3179 43.8782 34.1175 43.7864 33.8844C43.6944 33.6516 43.6484 33.3975 43.6484 33.122Z" fill="white"/>
<path d="M50.1578 32.9065H50.9229C51.0182 32.9065 51.1118 32.8955 51.2036 32.873C51.2954 32.8513 51.3771 32.8155 51.4486 32.7661C51.5199 32.717 51.5778 32.6518 51.622 32.57C51.6661 32.488 51.6883 32.3878 51.6883 32.2692C51.6883 32.1531 51.6652 32.0546 51.6193 31.9728C51.5734 31.8917 51.5138 31.8241 51.4407 31.7715C51.3677 31.7189 51.2835 31.6805 51.1884 31.6571C51.0931 31.6329 50.9977 31.6211 50.9028 31.6211H50.1578V32.9065ZM49.8213 31.3147H50.8618C50.9876 31.3147 51.1194 31.3297 51.2572 31.358C51.3948 31.3874 51.5208 31.4374 51.6347 31.5093C51.7485 31.5803 51.8421 31.678 51.9152 31.8024C51.9884 31.926 52.0249 32.0822 52.0249 32.2692C52.0249 32.432 51.9951 32.5732 51.9356 32.6927C51.8761 32.8112 51.7962 32.909 51.696 32.9859C51.5956 33.0618 51.4798 33.1194 51.3489 33.1562C51.2179 33.1938 51.0812 33.2129 50.9385 33.2129H50.1578V34.9268H49.8213V31.3147Z" fill="white"/>
<path d="M54.3965 31.3147H54.9015L56.2175 34.3455L57.5338 31.3147H58.0132V34.9268H57.6765V31.7439H57.6663L56.2889 34.9268H56.1411L54.7432 31.7439H54.733V34.9268H54.3965V31.3147Z" fill="white"/>
<path d="M60.6509 31.3147H62.8596V31.6211H60.9874V32.9065H62.7424V33.2129H60.9874V34.621H62.9412V34.9268H60.6509V31.3147Z" fill="white"/>
<path d="M65.3594 31.3147H65.793L67.9915 34.4774H68.0018V31.3147H68.3384V34.9268H67.905L65.7061 31.764H65.6959V34.9268H65.3594V31.3147Z" fill="white"/>
<path d="M71.8128 31.6213H70.5781V31.3149H73.3839V31.6213H72.1493V34.9268H71.8128V31.6213Z" fill="white"/>
</svg>
