<svg width="82" height="24" viewBox="0 0 82 24" fill="none" xmlns="http://www.w3.org/2000/svg">
<g clip-path="url(#clip0_25890_48146)">
<g clip-path="url(#clip1_25890_48146)">
<mask id="mask0_25890_48146" style="mask-type:luminance" maskUnits="userSpaceOnUse" x="0" y="0" width="24" height="24">
<path d="M0 0H24V24H0V0Z" fill="white"/>
</mask>
<g mask="url(#mask0_25890_48146)">
<path d="M12 2C9.34784 2 6.8043 3.05357 4.92893 4.92893C3.05357 6.8043 2 9.34784 2 12C2 14.6522 3.05357 17.1957 4.92893 19.0711C6.8043 20.9464 9.34784 22 12 22C14.6522 22 17.1957 20.9464 19.0711 19.0711C20.9464 17.1957 22 14.6522 22 12C22 9.34784 20.9464 6.8043 19.0711 4.92893C17.1957 3.05357 14.6522 2 12 2ZM19 8H16C15.7 6.7 15.2 5.5 14.6 4.4C16.458 5.02082 18.0236 6.30177 19 8ZM12 4C12.8767 5.21755 13.552 6.56811 14 8H10C10.448 6.56811 11.1233 5.21755 12 4ZM4.3 14C3.96981 12.6871 3.96981 11.3129 4.3 10H7.6C7.43779 11.3284 7.43779 12.6716 7.6 14H4.3ZM5.1 16H8.1C8.4 17.3 8.8 18.4 9.4 19.6C7.54204 18.9792 5.97644 17.6982 5 16H5.1ZM8.1 8H5C5.952 6.32047 7.47924 5.04185 9.3 4.4C8.8 5.5 8.3 6.7 8 8H8.1ZM12 20C11.1233 18.7824 10.448 17.4319 10 16H14C13.552 17.4319 12.8767 18.7824 12 20ZM14.3 14H9.7C9.51775 12.6729 9.51775 11.3271 9.7 10H14.3C14.4835 11.327 14.4835 12.673 14.3 14ZM14.6 19.6C15.2 18.4 15.6 17.2 16 16H19C18.0236 17.6982 16.458 18.9792 14.6 19.6ZM16.4 14C16.5622 12.6716 16.5622 11.3284 16.4 10H19.7C20.0302 11.3129 20.0302 12.6871 19.7 14H16.4Z" fill="white"/>
</g>
</g>
</g>
<g clip-path="url(#clip2_25890_48146)">
<path d="M35.9515 18.6667C34.4567 18.6667 33.2931 18.2899 32.4606 17.5365C31.6281 16.777 31.2119 15.7167 31.2119 14.3555C31.2119 12.8851 31.6737 11.7275 32.5973 10.8829C33.5209 10.0383 34.7636 9.61596 36.3252 9.61596H37.5557V8.44019H39.1507V17.2084H41.2744C41.3352 17.2084 41.3656 17.2327 41.3656 17.2813V18.5755C41.3656 18.6363 41.3352 18.6667 41.2744 18.6667H35.9515ZM37.5557 17.2084V11.0652H36.3799C35.2618 11.0652 34.3959 11.3538 33.7822 11.9311C33.1746 12.5023 32.8708 13.3043 32.8708 14.3373C32.8708 15.267 33.1351 15.9779 33.6637 16.4701C34.1924 16.9623 34.9428 17.2084 35.915 17.2084H37.5557ZM34.9854 6.71754C34.6937 6.71754 34.4446 6.62943 34.238 6.4532C34.0374 6.27699 33.9372 5.9914 33.9372 5.59644C33.9372 5.20147 34.0374 4.91588 34.238 4.73967C34.4446 4.56345 34.6937 4.47534 34.9854 4.47534C35.3013 4.47534 35.5535 4.57256 35.7419 4.76701C35.9302 4.95538 36.0244 5.23185 36.0244 5.59644C36.0244 5.95495 35.9302 6.23142 35.7419 6.42587C35.5596 6.62031 35.3074 6.71754 34.9854 6.71754ZM38.2119 6.71754C37.8899 6.71754 37.6347 6.62031 37.4463 6.42587C37.2579 6.23142 37.1637 5.95495 37.1637 5.59644C37.1637 5.23793 37.2549 4.96145 37.4372 4.76701C37.6255 4.57256 37.8838 4.47534 38.2119 4.47534C38.5461 4.47534 38.8044 4.57864 38.9866 4.78524C39.1689 4.98576 39.2601 5.25616 39.2601 5.59644C39.2601 5.93671 39.1689 6.21015 38.9866 6.41675C38.8044 6.61727 38.5461 6.71754 38.2119 6.71754ZM41.1012 18.6667C41.0405 18.6667 41.0101 18.6363 41.0101 18.5755V17.2813C41.0101 17.2327 41.0405 17.2084 41.1012 17.2084H44.1273V9.61596H45.7861V17.2084H48.5843C48.645 17.2084 48.6754 17.2327 48.6754 17.2813V18.5755C48.6754 18.6363 48.645 18.6667 48.5843 18.6667H41.1012ZM43.3981 22.4037C43.1064 22.4037 42.8573 22.3157 42.6507 22.1394C42.4502 21.9631 42.3499 21.6775 42.3499 21.2826C42.3499 20.8877 42.4502 20.6021 42.6507 20.4258C42.8573 20.2497 43.1064 20.1615 43.3981 20.1615C43.7141 20.1615 43.9662 20.2557 44.1546 20.4441C44.343 20.6385 44.4371 20.9181 44.4371 21.2826C44.4371 21.6411 44.343 21.9177 44.1546 22.1121C43.9723 22.3065 43.7202 22.4037 43.3981 22.4037ZM46.6247 22.4037C46.3026 22.4037 46.0474 22.3065 45.859 22.1121C45.6707 21.9177 45.5765 21.6411 45.5765 21.2826C45.5765 20.9241 45.6677 20.6477 45.8499 20.4531C46.0383 20.2587 46.2966 20.1615 46.6247 20.1615C46.9589 20.1615 47.2171 20.2618 47.3994 20.4623C47.5817 20.6689 47.6729 20.9423 47.6729 21.2826C47.6729 21.6229 47.5817 21.8933 47.3994 22.0938C47.2171 22.3005 46.9589 22.4037 46.6247 22.4037ZM48.4111 18.6667C48.3503 18.6667 48.3199 18.6363 48.3199 18.5755V17.2813C48.3199 17.2327 48.3503 17.2084 48.4111 17.2084H50.8721V9.61596H52.5309V18.6667H48.4111ZM51.6194 22.4037C51.2974 22.4037 51.0422 22.3065 50.8538 22.1121C50.6654 21.9177 50.5713 21.6411 50.5713 21.2826C50.5713 20.9241 50.6625 20.6477 50.8447 20.4531C51.0331 20.2587 51.2914 20.1615 51.6194 20.1615C51.9537 20.1615 52.2119 20.2618 52.3942 20.4623C52.5765 20.6689 52.6677 20.9423 52.6677 21.2826C52.6677 21.6229 52.5765 21.8933 52.3942 22.0938C52.2119 22.3005 51.9537 22.4037 51.6194 22.4037ZM58.6013 18.6667V19.1134C58.6013 20.3711 58.3157 21.3586 57.7445 22.0755C57.1733 22.7926 56.3499 23.1511 55.2745 23.1511C54.6789 23.1511 54.0439 22.9749 53.3694 22.6225L53.8525 21.3738C54.1563 21.5074 54.4055 21.5925 54.5999 21.629C54.7943 21.6715 55.007 21.6927 55.2379 21.6927C55.797 21.6927 56.2345 21.4649 56.5505 21.0091C56.8665 20.5534 57.0245 19.9519 57.0245 19.2045V9.61596H58.6013V17.2084H60.9073C60.9741 17.2084 61.0075 17.2327 61.0075 17.2813V18.5755C61.0075 18.6363 60.9741 18.6667 60.9073 18.6667H58.6013ZM69.8213 18.6667C69.2987 18.6667 68.7366 18.5907 68.1351 18.4389C67.5335 18.2809 66.9441 18.047 66.3669 17.737C65.2731 18.3569 64.1155 18.6667 62.8942 18.6667H60.7341C60.6733 18.6667 60.6429 18.6363 60.6429 18.5755V17.2813C60.6429 17.2327 60.6733 17.2084 60.7341 17.2084H62.8759C63.7691 17.2084 64.5105 17.0839 65.0999 16.8347C64.6199 16.4884 64.1277 15.9901 63.6234 15.3399C63.1251 14.6837 62.6998 13.9788 62.3473 13.2253C62.001 12.4658 61.7731 11.7457 61.6637 11.0652C62.3443 10.4272 63.1099 9.92587 63.9606 9.56128C64.8174 9.19669 65.6894 9.0144 66.5765 9.0144C67.3603 9.0144 68.1503 9.13898 68.9463 9.38811C69.7423 9.63723 70.4381 9.9684 71.0335 10.3816C71.0335 11.6698 70.7358 12.8851 70.1403 14.0274C69.5449 15.1698 68.7245 16.0995 67.6794 16.8165C68.3721 17.0778 69.0617 17.2084 69.7483 17.2084H72.0087C72.0695 17.2084 72.0999 17.2327 72.0999 17.2813V18.5755C72.0999 18.6363 72.0695 18.6667 72.0087 18.6667H69.8213ZM66.3851 15.9962C67.3451 15.346 68.0591 14.632 68.527 13.8542C68.9949 13.0765 69.2593 12.1802 69.3199 11.1654C68.451 10.7036 67.5547 10.4727 66.6311 10.4727C65.5739 10.4727 64.5166 10.8343 63.4593 11.5574C63.6477 12.4081 64.0001 13.2223 64.5166 14.0001C65.0331 14.7779 65.6559 15.4432 66.3851 15.9962ZM71.8357 18.6667C71.7749 18.6667 71.7445 18.6363 71.7445 18.5755V17.2813C71.7445 17.2327 71.7749 17.2084 71.8357 17.2084H74.2966V4.48446H75.9554V18.6667H71.8357ZM79.7015 4.48446H81.3603V18.6667H79.7015V4.48446Z" fill="white"/>
</g>
<defs>
<clipPath id="clip0_25890_48146">
<rect width="24" height="24" fill="white"/>
</clipPath>
<clipPath id="clip1_25890_48146">
<rect width="24" height="24" fill="white"/>
</clipPath>
<clipPath id="clip2_25890_48146">
<rect width="52" height="20" fill="white" transform="translate(30 4)"/>
</clipPath>
</defs>
</svg>
